<?xml version="1.0" encoding="utf-8"?>
<!-- Generator: Adobe Illustrator 16.0.0, SVG Export Plug-In . SVG Version: 6.00 Build 0)  -->
<!DOCTYPE svg PUBLIC "-//W3C//DTD SVG 1.1//EN" "http://www.w3.org/Graphics/SVG/1.1/DTD/svg11.dtd">
<svg version="1.1" id="Layer_1" xmlns="http://www.w3.org/2000/svg" xmlns:xlink="http://www.w3.org/1999/xlink" x="0px" y="0px"
	 width="4900px" height="360px" viewBox="0 0 4900 360" enable-background="new 0 0 4900 360" xml:space="preserve">
<path d="M2424.224,47.521l0.288-0.288l0.576-0.576v-0.576l-0.288-0.288l-0.576-0.288l-0.575,0.576l-0.576,0.288L2424.224,47.521z
	 M2414.72,26.497h0.576l0.288-0.288l0.288-1.44l-0.288-1.151l-0.863-0.576h-0.576v0.288l0.287,0.864l-0.287,0.288h-0.576
	l-0.576-0.576l-0.576-1.44l-0.288-0.288l-0.288,0.288v2.88l0.576,0.576L2414.72,26.497z M2552.96,163.296v0.864l0.288,0.864
	l0.576,1.439v0.864l2.592,3.456l0.288,0.576l0.864,0.576l0.287,1.728l-0.287,4.896v0.863l0.576,0.576l1.151,0.865l1.152-0.865
	v-1.439l-1.152-6.337l-2.592-4.031l-0.864-2.305l-0.576-0.863l-0.863-2.017l-0.864-0.863l0.288,0.863v0.576L2552.96,163.296z
	 M2403.775,60.769l-0.287,0.575l0.287,0.576l0.864,0.288l1.729,0.288l1.728,0.576l2.881,1.44l3.168,2.592l0.863,0.288l0.576,0.576
	l0.864,0.863l1.151,0.864l1.729,0.288l-0.576-1.152l-3.456-3.744l1.151,0.288l2.017,1.152l1.152,0.288l-2.593-2.304l-2.88-1.729
	l-3.168-1.151l-2.88-0.864h-3.168H2403.775z M2417.023,21.601l1.152,0.863h0.864l1.44-0.863h0.575l0.864,0.575l1.152,0.288h0.863
	l0.576-0.576l-0.288-0.575l-0.864-0.576l-1.151-0.576l-0.864-0.576l-0.288-0.576v-1.151l-0.288-0.288h-1.439h-0.288l-0.576-0.576
	l-0.288-0.864v-0.864v-1.151l0.288-0.864l0.288-0.864v-0.576l-0.864-0.287l-1.728,0.287l-0.576,1.44l-0.288,1.728l-0.864,1.152
	l1.729,3.456L2417.023,21.601z M2565.057,212.545l-0.865-2.592l-0.287-1.152l0.287-17.279l-1.728-6.336l-1.151-1.729l-0.289-1.441
	l-0.287-0.574l-0.576-0.576l-0.288-0.289v0.289l0.288,0.576v0.574l-0.576,0.576l-0.288,0.865l-0.288,1.152v1.15h-0.576v-1.15
	l-0.576-2.881h-0.576l-0.576,0.863h-0.575v-0.576l0.864-0.574l-0.576-0.576l-0.288-0.289l-0.288-0.288l-0.288-0.576l-0.288-0.576
	l0.288-0.576l0.576-0.288l0.288-0.576v-0.288l-0.288-0.575v-0.288l0.575-1.729v-0.288l-1.439-3.456l-0.288-0.576l-1.728-1.151
	l-0.864-0.288l0.288,1.152l-0.576,0.575l-0.288-0.575v-0.576v-0.288l0.288-0.576l-0.864-1.44l-0.864-0.863l-2.016-1.729v-0.864
	l-0.576-0.575l-0.863-0.288l-0.864-0.288l-0.576,0.863l-0.864,0.288h-0.863l-0.864-0.288l0.576-1.728l0.864-0.864h1.151l1.152,0.576
	l0.864,0.864l1.728,2.304l0.864,0.576l1.728-0.576l-0.288-1.44l-1.152-1.728l-3.168-3.168l-0.863-1.152l-0.576-1.439h-0.576
	l-1.439,0.288l-1.44-1.729l-0.864-2.592l0.576-1.729l0.288-0.287l0.288-0.288h0.288l-0.576-0.864l-1.44-1.152l-0.576-0.863v-0.864
	l0.289-0.576l0.287-0.576l-0.287-0.864l-0.289,0.288l-0.863,0.288l-0.288,0.288v-0.288V144l-0.288-0.288l-0.288-0.287l0.288-0.288
	l-0.288-0.576l-0.288,0.288l-0.576,0.288l-0.288,0.288l-0.863-2.017l-0.576-0.864l-0.864-0.863l-0.576-1.152l-0.576-2.592
	l-0.576-1.152h-0.575l-0.576,1.729h-1.152l-1.151-0.864l-0.576-1.439v-0.288l-0.576-0.288l-0.288-0.288v-0.576v-0.288v-0.288l0,0
	v-0.864v-2.304h0.576l1.151,3.168l0.864,3.456l1.44-1.728l-0.576-3.456l-1.729-6.049l-0.288-1.151l-0.575-2.304l-0.576-2.881
	l-0.864-0.288h-0.864l-0.863-0.575l-0.289-0.864l-0.287-2.592v-0.576l0.863,0.288l0.864,2.016l0.864,0.576v-2.016l-1.152-3.744
	l-0.576-2.88l-0.576-1.152l-0.863-0.864l-0.864-0.575h-0.864l-0.863,0.287l-2.017,0.864l0.864,1.729l-1.152,0.863h-3.456
	l-1.728-0.576l-1.152-1.151l-0.863-1.44l-1.152-1.151l-1.44,1.151l-1.151,0.288l-0.288-0.576l0.864-1.151l1.151-0.576l1.152,0.288
	l1.151,0.864l1.152,0.863l0.576-1.151l-0.288-0.864l-0.576-0.576l-0.288-0.864l0.576-1.151h0.864l0.575,0.863l-0.287,1.152
	l1.728-0.288l-0.288-1.728l-1.728-3.456l-0.288,0.288l-1.152,0.287l0.576-0.863l0.864-0.288l0.575-0.576v-1.44l-0.575-1.151
	l-2.017-2.304l0.288-0.576l-0.576-0.288h-0.288l-0.287,0.288l-0.289,0.576l-1.151-3.744l-0.864-2.017l-1.728-0.863l-0.864-0.864
	l-1.439-3.744l-1.152-0.864l-1.44-0.288l-0.864-0.863l-2.304-4.032l-2.592-3.168L2497.087,72l-0.864,1.439l-0.863,0.864h-1.152
	l-1.152-0.864l0.576-0.864l0.864-0.863l-0.864-0.576v-1.44l-2.592-2.592l-0.863-1.152l1.151,0.576l2.017,0.576l0.863,0.576
	l0.864,1.152l0.288,0.288l0.576-0.288l0.288-0.576V67.68l-0.288-0.288l-1.44-0.864l-1.439-2.016l-1.152-2.304l-0.288-1.729
	l-0.288,0.288h-0.288l-0.288,0.288l-0.288,0.288h-0.576l-0.287-1.729l-1.152-0.575l-1.152-0.288l-0.576-0.288l0.289-1.152h0.863
	l2.016,0.864l-3.455-6.912l-0.864-2.304l-0.576-0.288l-1.152,0.288l-0.288,0.576l0.288,0.863l0.576,0.864l-1.439-0.864l-3.744-3.456
	l-0.288-0.863l0.576-0.288l1.439,0.288l0.576,0.288l0.864,0.863l0.576,0.288l0.864-0.576l-0.864-1.151l-1.729-1.44l-0.864-1.152
	l-0.575-0.863l-20.448-16.416l-2.88-1.729l-1.44-1.151l-9.792-11.232l-0.575-1.152l-0.576-2.304l-1.152-0.576l-1.44-0.288
	l-3.168,0.288l-2.016,0.288l-1.44,0.576v1.152l1.152,0.863l4.32,0.864l2.592,1.44l5.184,6.048l6.336,5.184l2.592,1.44v0.576
	l-5.472-2.593l-2.304-1.439l-8.641-9.216l-0.863-0.576h-0.576l-0.864,0.288h-0.864l-0.287-0.576l-0.288-0.288l-1.729-0.576h-0.575
	l-0.576-0.288l-0.289-0.576V8.928l-0.287-0.864h-1.152l-2.88,0.288l-5.76-0.576l-1.44,0.576l-2.88,2.592l-1.728,0.864l0.575,0.864
	l1.152,1.439l0.576,0.864l0.288,0.864v0.863l0.288,0.576l0.864,0.576V17.28l0.575,0.288l0.864,0.576l1.729,0.576l2.879,2.304
	l3.457,2.016l1.728,0.864l1.728,0.288l-0.863-0.864l-1.44-1.151l-0.864-0.864l1.729,0.576l2.88,2.304l1.44,0.864l0.576,0.288
	l0.576,0.288l0.575-0.288l0.576-0.864l-0.576-0.864l-0.863-0.575l-0.576-0.576l-0.288-1.729h0.863l1.44,0.864l4.608,2.016
	l2.304,1.44l5.184,4.607l0.576,0.288h2.304h0.289l0.863,0.576l0.288-0.288l0.288-0.288l0.576-0.288h1.439h0.576l0.576,0.288
	l1.44,0.864l0.575,0.288l1.44,0.288l1.728,0.864l4.896,3.456l-3.456-0.576l-4.608-2.017l-4.031-1.151l-1.729-0.288l-6.624,2.592
	l-3.743,0.864l-1.44-1.152l0.576-0.576l-0.288-0.576l-0.288-0.576l0.864-0.575l-0.288-0.864l-1.729-1.44l-1.151-0.575l-4.32-1.152
	l-4.32-2.592l-2.304-0.864h-2.304l1.151,1.44l5.473,3.168l1.439,1.151l1.152,1.152l0.864,1.151l0.576,1.152h-0.864l-0.576,0.288
	l-0.576,0.288l-0.576,0.288l-1.728,2.016l-0.576,0.288l-1.44,0.288l-1.728,0.576l-1.729,0.864l-0.863,0.863v0.864l0.287,1.729
	l0.576,1.728l0.864,0.864l2.017,1.151l0.863,0.288v0.288l-0.288,0.576v4.32l-0.864,2.88l-2.304,6.048l-0.575,2.592l-0.864,1.729
	l-0.576,1.728l-0.864,0.864l-2.304,1.152l-4.32,3.743L2419.327,72l-0.863,0.288l-0.576,0.288l0.288,0.864l0.288,0.576l0.288,0.864
	l0.287,1.728v5.184v0.864l1.729,4.608l-0.576,7.2l-0.576,1.439l-0.288,0.576l-0.288,0.288l-0.863,2.592l-0.864,1.152l-1.151,0.863
	l-0.864,0.864l-0.288,1.44v3.168L2414.72,108l-0.288,0.576l-0.576,0.288l-0.576,0.864l-0.576,7.2l-0.576,3.168l-0.287,1.439
	l-0.289,0.864l-0.863,1.152l-0.288,0.575v0.864v0.288l0.288,0.288l0.288,0.576v0.576v1.439v0.864l0.288,0.576l0.288,0.576
	l0.288,0.576v0.863l-2.592,4.608l0.287,0.864l0.864,0.575l0.864,1.152l0.863,1.44l0.289,1.439l-1.729,1.152l-3.456-0.288
	l-2.304-1.729l1.439-3.168l-1.728-2.016v-2.304l1.151-4.032v-0.576v-1.728v-0.864l0.288-0.288h0.288l0.288-0.288l0.864-1.44
	l0.863-2.016h-0.863l-0.576-0.288l-0.576-0.576l-0.288-0.864l1.44-2.592l1.152-2.592l-2.305,3.456l-0.288,0.864l-0.288,1.439
	l-0.863,1.729l-1.152,1.439l-1.152,0.864l0.288,1.44l0.288,4.319l-0.288,1.44l-0.288-0.288l0,0l0,0h-0.287v2.304l1.728,8.353
	l1.151,2.88l0.864,3.744l0.864,1.728l2.016,9.216v2.593l0.288,1.439l0.576,1.152l0.288,1.151l-0.288,1.44l-0.288,1.439v1.152
	l-0.576-0.288h-0.287l-0.289,0.288l0.576,0.864l3.744,26.208l-0.288,0.576l-0.288,0.576v0.574l0.288,0.576l0.576,0.289l0.864,0.287
	l0.288,0.289l0.288,0.863l0.287,0.863v2.305l0,0h-0.287l-0.288,0.289v0.574h-0.576l-0.288-0.574l-0.576-2.594l-0.288-0.574
	l-0.288-0.576l-0.288-0.576v-1.152l-0.575,1.729l3.455,12.383v0.865l-0.287,0.863l-0.864,2.016v5.184l1.151,6.049l7.776,20.16
	l0.576,4.031h-0.288h-0.288h-0.288v0.289l0.288,0.287l0.288,0.289l0.288,0.287h0.288l1.152,4.607l1.439,2.305l0.576,3.455
	l0.576,1.152v0.289v1.152v0.574l3.456,7.201l0.864,1.152l0.287,0.287v0.576v0.289l0.288,0.287l0.576,0.287l6.048,6.338l1.44,1.15
	l0.576-0.576l1.151,0.576l1.729,1.152l2.304,0.576l3.744,1.439l0.288,0.289l0.576,0.576l0.288,0.287h0.288l0.287-0.287l0.289-0.289
	h0.287l0.576,0.289l0.288,0.287l0.288,0.289l0.288,0.287l2.592,0.289h1.152l1.151-0.865l0.576,0.865l0.288,0.863l0.576,0.576
	l1.152,0.287l4.319-0.576l1.152,0.289l1.152,0.576l1.151,0.576l1.152-0.289l1.728-1.439l0.864-0.576l0.864-0.287l1.152-0.289
	l2.879,0.289l1.44-1.441l5.761-4.318l2.016-0.865l2.016,0.289l1.152-1.441l1.728-0.576l4.032-0.863l3.744-1.152l7.775-1.727
	l1.729-0.576l1.729-0.865l0.863-0.287l0.576-0.289l0.288-0.576l0.288-1.15l0.288-0.576l0.576-0.289l0.576,0.289v1.15l8.928-3.168
	l2.88-1.439l13.824-10.656l2.016-0.863l1.44-0.289l4.319-2.879l2.305-2.305l6.912-10.943l0.863-2.016l-0.576-1.729l2.017-3.168
	l0.288-1.152l0.287-0.863l1.152-2.016l0.289-1.441v-1.727l0.287-1.152l3.456-11.809l0.288-2.881L2565.057,212.545z M2419.616,72
	l-0.288-0.576l-0.288,1.152L2419.616,72z M2406.08,31.105l-0.864-1.729l-0.288-0.288h-1.439l-1.152-0.288l-0.288-0.863l-0.576-0.576
	h-0.575l-0.289,0.863v2.88l0.864,0.864l1.729,0.576h1.728L2406.08,31.105z M2399.456,62.497l-0.864,0.576h0.864l0.288-0.288h1.439
	l-0.287-0.288H2399.456z M2392.544,61.344v0.576l0,0V61.344L2392.544,61.344z"/>
</svg>
